<svg width="30" height="30" viewBox="0 0 30 30" fill="none" xmlns="http://www.w3.org/2000/svg">
<path fill-rule="evenodd" clip-rule="evenodd" d="M17.148 19.9386C18.9099 19.9388 20.3439 21.2963 20.3437 22.9647L20.3432 27.2558C20.3431 27.6143 20.6445 27.9017 21.0309 27.9101L23.8201 27.9105C26.0182 27.9108 27.8052 26.2286 27.8055 24.1612L27.807 11.9912C27.7969 11.2797 27.4413 10.6101 26.8312 10.165L17.1838 2.8288C15.8888 1.85074 14.0771 1.85051 12.7775 2.83104L3.19409 10.1592C2.56037 10.6181 2.20468 11.2876 2.19727 12.0116L2.19574 24.158C2.19548 26.2254 3.98209 27.908 6.18014 27.9083L8.99575 27.9086C9.39234 27.9087 9.71433 27.6088 9.71437 27.2405C9.71438 27.1596 9.72464 27.0787 9.74221 27.002L9.74272 22.9634C9.74293 21.3047 11.1685 19.949 12.9172 19.938L17.148 19.9386ZM23.8199 30.003L21.0043 30.0026C19.3916 29.9662 18.1478 28.7593 18.148 27.2555L18.1486 22.9645C18.1486 22.4497 17.6994 22.0312 17.1477 22.0311L12.9243 22.0306C12.3843 22.0333 11.9379 22.4531 11.9378 22.9637L11.9373 27.2408C11.9373 27.3454 11.9226 27.4458 11.8919 27.5407C11.7337 28.9217 10.4955 30.0013 8.99549 30.0011L6.17988 30.0008C2.77159 30.0003 0.000210149 27.3788 0.000616267 24.1577L0.00214893 12.0016C0.0169579 10.615 0.687362 9.34559 1.84503 8.51013L11.4094 1.19452C13.5154 -0.395525 16.4496 -0.395155 18.5508 1.19263L28.1821 8.51764C29.3132 9.33944 29.9833 10.6062 30.0022 11.9761L30.0006 24.1615C30.0002 27.3826 27.2282 30.0034 23.8199 30.003Z" fill="#FF0000"/>
</svg>
